<?xml version="1.0" standalone="no"?><!DOCTYPE svg PUBLIC "-//W3C//DTD SVG 1.1//EN" "http://www.w3.org/Graphics/SVG/1.1/DTD/svg11.dtd"><svg t="1685958825122" class="icon" viewBox="0 0 1024 1024" version="1.1" xmlns="http://www.w3.org/2000/svg" p-id="8252" xmlns:xlink="http://www.w3.org/1999/xlink" width="200" height="200"><path d="M919.7 423.4c-18.5-35-58.2-36.3-73-31.8-25.3 7.6-50.5 53.3-50.5 53.3s1.4-58.4-13.2-81.6c-12.7-20.2-41.6-32.2-41.6-32.2s-29.3-6.5-46.2 4.3c-26.3 16.9-44.6 82.9-44.6 82.9s-1-69.7-18.2-93.6c-17.5-24.4-74.3-40-100.2-16.1-34.5 31.9-63.2 97.8-63.2 97.8V142.6s2.5-29.3-9.9-49.3c-15.5-24.9-56.5-45.4-88.7-11.6-17.2 18.1-16.2 54-16.2 54v529.4s1 49.8-13.2 72.5c-11.1 17.8-38.2 9.8-38.2 9.8l-95.9-104.5S182 622.2 159 620.2c-48-4.1-68.3 20.9-62.4 62.7 3.6 25.4 24.6 47.3 24.6 47.3l186.7 183.3s41.6 37.1 101.4 41.3c152 10.5 414.1 1.7 414.1 1.7s71-47.1 79.3-87C929.5 740.2 928 480.2 928 480.2s4-33.5-8.3-56.8z" fill="#d4237a" p-id="8253"></path></svg>